<svg width="20" height="20" viewBox="0 0 20 20" fill="none" xmlns="http://www.w3.org/2000/svg">
<path d="M14.6429 15.9694V17.2959C14.6429 17.6477 14.503 17.9852 14.2543 18.2339C14.0056 18.4826 13.6681 18.6225 13.3163 18.6225H4.03061C3.67878 18.6225 3.34138 18.4826 3.0926 18.2339C2.84384 17.9852 2.70408 17.6477 2.70408 17.2959V2.70409C2.70408 2.35227 2.84384 2.01487 3.0926 1.7661C3.34138 1.51732 3.67878 1.37756 4.03061 1.37756H13.3163C13.6681 1.37756 14.0056 1.51732 14.2543 1.7661C14.503 2.01487 14.6429 2.35227 14.6429 2.70409V4.03062" stroke="#E60400" stroke-width="1.42857" stroke-linecap="round" stroke-linejoin="round"/>
<path d="M8.01019 10H17.2959" stroke="#E60400" stroke-width="1.42857" stroke-linecap="round" stroke-linejoin="round"/>
<path d="M14.6429 7.34692L17.2959 9.99998L14.6429 12.653" stroke="#E60400" stroke-width="1.42857" stroke-linecap="round" stroke-linejoin="round"/>
</svg>
