<svg width="18" height="15" viewBox="0 0 18 15" fill="none" xmlns="http://www.w3.org/2000/svg">
<path fill-rule="evenodd" clip-rule="evenodd" d="M9.81153 2.73975C9.77157 2.3536 9.72994 1.95295 9.62753 1.55316C9.34862 0.596724 8.57598 1.71283e-05 7.74755 1.71283e-05C7.28547 -0.00168775 6.70099 0.283027 6.36962 0.571151L3.62292 2.87188H2.18504C1.12683 2.87188 0.275923 3.68767 0.115234 4.86488C-0.0213098 5.99522 -0.0546133 8.12887 0.115234 9.37258C0.262602 10.6163 1.07521 11.4201 2.18504 11.4201H3.62292L6.42291 13.755C6.71015 14.0047 7.2172 14.2911 7.68344 14.2911C7.71342 14.292 7.74006 14.292 7.7667 14.292C8.61094 14.292 9.35444 13.6731 9.63336 12.7193C9.73845 12.316 9.77528 11.938 9.81087 11.5727L9.81153 11.5659L9.849 11.2019C9.99221 10.0213 9.99221 4.26306 9.849 3.09096L9.81153 2.73975ZM13.0268 2.77471C12.7979 2.43714 12.3441 2.35275 12.0119 2.58717C11.683 2.8233 11.6014 3.28873 11.8304 3.62544C12.4673 4.56398 12.8178 5.81365 12.8178 7.14601C12.8178 8.47752 12.4673 9.72805 11.8304 10.6666C11.6014 11.0033 11.683 11.4687 12.0127 11.7049C12.136 11.7918 12.28 11.8378 12.4282 11.8378C12.6671 11.8378 12.8903 11.7176 13.0268 11.5173C13.8311 10.3324 14.2749 8.78014 14.2749 7.14601C14.2749 5.51189 13.8311 3.9596 13.0268 2.77471ZM14.5223 0.175532C14.8537 -0.0597412 15.3091 0.0263551 15.5364 0.363068C16.7819 2.19666 17.468 4.60651 17.468 7.14592C17.468 9.68704 16.7819 12.096 15.5364 13.9296C15.4007 14.13 15.1767 14.2501 14.9378 14.2501C14.7896 14.2501 14.6464 14.2041 14.5231 14.1172C14.1934 13.881 14.1118 13.4165 14.34 13.0789C15.4173 11.4917 16.011 9.38443 16.011 7.14592C16.011 4.90827 15.4173 2.80104 14.34 1.2138C14.1118 0.877089 14.1934 0.411657 14.5223 0.175532Z" fill="#E60400"/>
</svg>