<svg width="18" height="15" viewBox="0 0 18 15" fill="none" xmlns="http://www.w3.org/2000/svg">
<path fill-rule="evenodd" clip-rule="evenodd" d="M9.81153 2.73974C9.77157 2.35359 9.72994 1.95294 9.62753 1.55315C9.34862 0.596714 8.57598 7.61853e-06 7.74755 7.61853e-06C7.28547 -0.00169726 6.70099 0.283017 6.36962 0.571141L3.62292 2.87187H2.18504C1.12683 2.87187 0.275923 3.68766 0.115234 4.86487C-0.0213098 5.99521 -0.0546133 8.12886 0.115234 9.37257C0.262602 10.6163 1.07521 11.4201 2.18504 11.4201H3.62292L6.42291 13.755C6.71015 14.0047 7.2172 14.2911 7.68344 14.2911C7.71342 14.292 7.74006 14.292 7.7667 14.292C8.61094 14.292 9.35444 13.6731 9.63336 12.7192C9.73845 12.316 9.77528 11.938 9.81087 11.5727L9.81153 11.5659L9.849 11.2019C9.99221 10.0213 9.99221 4.26305 9.849 3.09095L9.81153 2.73974ZM13.0268 2.7747C12.7979 2.43713 12.3441 2.35274 12.0119 2.58716C11.683 2.82329 11.6014 3.28872 11.8304 3.62543C12.4673 4.56397 12.8178 5.81364 12.8178 7.146C12.8178 8.47751 12.4673 9.72804 11.8304 10.6666C11.6014 11.0033 11.683 11.4687 12.0127 11.7048C12.136 11.7918 12.28 11.8378 12.4282 11.8378C12.6671 11.8378 12.8903 11.7176 13.0268 11.5173C13.8311 10.3324 14.2749 8.78013 14.2749 7.146C14.2749 5.51188 13.8311 3.95959 13.0268 2.7747ZM14.5223 0.175522C14.8537 -0.0597507 15.3091 0.0263456 15.5364 0.363059C16.7819 2.19665 17.468 4.6065 17.468 7.14591C17.468 9.68703 16.7819 12.096 15.5364 13.9296C15.4007 14.1299 15.1767 14.2501 14.9378 14.2501C14.7896 14.2501 14.6464 14.2041 14.5231 14.1172C14.1934 13.881 14.1118 13.4165 14.34 13.0789C15.4173 11.4916 16.011 9.38442 16.011 7.14591C16.011 4.90826 15.4173 2.80103 14.34 1.21379C14.1118 0.877079 14.1934 0.411648 14.5223 0.175522Z" fill="#E60400"/>
</svg>
