<svg width="37" height="43" viewBox="0 0 37 43" fill="none" xmlns="http://www.w3.org/2000/svg">
<g style="mix-blend-mode:darken">
<path d="M11.5672 35.5752V35.0215H14.1864V35.5752H11.5672ZM10.5389 39.7148C11.0604 39.457 11.5174 39.1084 11.91 38.6689C12.3084 38.2236 12.5164 37.7988 12.534 37.3945V36.999H10.8026V36.4365H14.8016V36.999H13.2547V37.3682C13.2547 37.6846 13.4276 38.0449 13.7733 38.4492C14.119 38.8477 14.4823 39.1494 14.8631 39.3545L14.4588 39.8027C14.1893 39.6445 13.9022 39.4219 13.5975 39.1348C13.2928 38.8418 13.0672 38.5723 12.9207 38.3262C12.7567 38.6309 12.4871 38.9648 12.1121 39.3281C11.743 39.6855 11.3621 39.9668 10.9696 40.1719L10.5389 39.7148ZM15.2323 40.04V34.8809H15.8299V37.2891H16.9286V34.7754H17.5702V40.6289H16.9286V37.8867H15.8299V40.04H15.2323ZM11.5584 42.2109C11.9745 42.1113 12.3963 41.9707 12.8241 41.7891C13.2518 41.6016 13.6268 41.373 13.9491 41.1035C14.2713 40.8281 14.4325 40.5615 14.4325 40.3037V40.0664H15.1092V40.2861C15.1092 40.5498 15.2704 40.8223 15.5926 41.1035C15.9207 41.3789 16.2987 41.6133 16.7264 41.8066C17.1541 41.9941 17.5731 42.1318 17.9832 42.2197L17.6668 42.7559C17.1219 42.627 16.5653 42.4072 15.9969 42.0967C15.4286 41.792 15.0213 41.4668 14.7752 41.1211C14.5291 41.4609 14.1278 41.7832 13.5711 42.0879C13.0204 42.3926 12.4579 42.6152 11.8836 42.7559L11.5584 42.2109ZM19.9132 38.2119V34.8809H20.59V35.9619H24.7121V34.8809H25.3976V38.2119H19.9132ZM20.59 37.6318H24.7121V36.5068H20.59V37.6318ZM18.7267 39.8818V39.3105H22.3214V38.001H22.9982V39.3105H26.5578V39.8818H18.7267ZM19.3595 42.1934C20.0392 42.0586 20.7013 41.8154 21.3459 41.4639C21.9904 41.1064 22.3127 40.752 22.3127 40.4004V40.1982H22.9894V40.3916C22.9894 40.6377 23.1564 40.8926 23.4904 41.1562C23.8302 41.4141 24.2228 41.6338 24.6681 41.8154C25.1134 41.9912 25.547 42.1201 25.9689 42.2021L25.6525 42.7295C25.0783 42.6123 24.4982 42.4072 23.9123 42.1143C23.3322 41.8213 22.9162 41.5078 22.6642 41.1738C22.4064 41.502 21.9904 41.8125 21.4162 42.1055C20.8478 42.3984 20.2677 42.6094 19.6759 42.7383L19.3595 42.1934Z" fill="black"/>
</g>
<path d="M9.11875 25.0687L13.0825 23.7469L13.7763 24.0937C15.37 24.8887 17.1419 25.3125 19 25.3125C25.2062 25.3125 30.25 20.4262 30.25 15C30.25 9.57375 25.2062 4.6875 19 4.6875C12.7938 4.6875 7.75 9.57375 7.75 15C7.75 17.025 8.48125 19.08 9.82563 20.8369L10.4725 21.6806L9.11688 25.0669L9.11875 25.0687ZM7.79313 27.4875C7.62345 27.5443 7.44105 27.5514 7.26747 27.508C7.09389 27.4645 6.93638 27.3722 6.81354 27.2421C6.69071 27.112 6.60769 26.9494 6.57428 26.7736C6.54087 26.5978 6.55847 26.4161 6.625 26.25L8.335 21.975C6.775 19.9312 5.875 17.4862 5.875 15C5.875 8.78625 11.5 2.8125 19 2.8125C26.5 2.8125 32.125 8.78625 32.125 15C32.125 21.2137 26.5 27.1875 19 27.1875C16.8966 27.1934 14.8208 26.708 12.9381 25.77L7.79313 27.4856V27.4875Z" fill="#FF4F4D" fill-opacity="0.8"/>
<path d="M19 16.5C18.803 16.5 18.608 16.4612 18.426 16.3858C18.244 16.3104 18.0786 16.1999 17.9393 16.0607C17.8001 15.9214 17.6896 15.756 17.6142 15.574C17.5388 15.392 17.5 15.197 17.5 15C17.5 14.803 17.5388 14.608 17.6142 14.426C17.6896 14.244 17.8001 14.0786 17.9393 13.9393C18.0786 13.8001 18.244 13.6896 18.426 13.6142C18.608 13.5388 18.803 13.5 19 13.5C19.3978 13.5 19.7794 13.658 20.0607 13.9393C20.342 14.2206 20.5 14.6022 20.5 15C20.5 15.3978 20.342 15.7794 20.0607 16.0607C19.7794 16.342 19.3978 16.5 19 16.5ZM24.625 16.5C24.428 16.5 24.233 16.4612 24.051 16.3858C23.869 16.3104 23.7036 16.1999 23.5643 16.0607C23.4251 15.9214 23.3146 15.756 23.2392 15.574C23.1638 15.392 23.125 15.197 23.125 15C23.125 14.803 23.1638 14.608 23.2392 14.426C23.3146 14.244 23.4251 14.0786 23.5643 13.9393C23.7036 13.8001 23.869 13.6896 24.051 13.6142C24.233 13.5388 24.428 13.5 24.625 13.5C25.0228 13.5 25.4044 13.658 25.6857 13.9393C25.967 14.2206 26.125 14.6022 26.125 15C26.125 15.3978 25.967 15.7794 25.6857 16.0607C25.4044 16.342 25.0228 16.5 24.625 16.5ZM13.375 16.5C13.178 16.5 12.983 16.4612 12.801 16.3858C12.619 16.3104 12.4536 16.1999 12.3143 16.0607C12.1751 15.9214 12.0646 15.756 11.9892 15.574C11.9138 15.392 11.875 15.197 11.875 15C11.875 14.803 11.9138 14.608 11.9892 14.426C12.0646 14.244 12.1751 14.0786 12.3143 13.9393C12.4536 13.8001 12.619 13.6896 12.801 13.6142C12.983 13.5388 13.178 13.5 13.375 13.5C13.7728 13.5 14.1544 13.658 14.4357 13.9393C14.717 14.2206 14.875 14.6022 14.875 15C14.875 15.3978 14.717 15.7794 14.4357 16.0607C14.1544 16.342 13.7728 16.5 13.375 16.5Z" fill="#FF4F4D" fill-opacity="0.8"/>
</svg>
