<svg width="47" height="43" viewBox="0 0 47 43" fill="none" xmlns="http://www.w3.org/2000/svg">
<g style="mix-blend-mode:darken">
<path d="M11.8141 41.0771V35.5928H14.8903V41.0771H11.8141ZM12.4733 40.4971H14.2311V36.1729H12.4733V40.4971ZM15.9538 42.4307V35.0039H16.569V38.0977H17.7643V34.7754H18.4147V42.791H17.7643V38.7305H16.569V42.4307H15.9538ZM20.8369 37.9834V35.0127H21.5225V37.4033H26.3916V37.9834H20.8369ZM19.5537 40.0752V39.4863H27.3936V40.0752H25.3018V42.8086H24.6338V40.0752H22.3574V42.8086H21.6895V40.0752H19.5537ZM28.3743 36.6826C28.3743 36.1553 28.5677 35.7305 28.9544 35.4082C29.347 35.0859 29.848 34.9248 30.4573 34.9248C31.055 34.9248 31.5501 35.0889 31.9427 35.417C32.3411 35.7393 32.5404 36.1611 32.5404 36.6826C32.5404 37.21 32.3441 37.6348 31.9515 37.957C31.5589 38.2734 31.0609 38.4316 30.4573 38.4316C29.8421 38.4316 29.3411 38.2734 28.9544 37.957C28.5677 37.6348 28.3743 37.21 28.3743 36.6826ZM29.0687 36.6826C29.0687 37.0342 29.1976 37.3242 29.4554 37.5527C29.7191 37.7754 30.053 37.8867 30.4573 37.8867C30.8616 37.8867 31.1927 37.7725 31.4505 37.5439C31.7142 37.3154 31.846 37.0283 31.846 36.6826C31.846 36.3369 31.7142 36.0498 31.4505 35.8213C31.1927 35.5869 30.8616 35.4697 30.4573 35.4697C30.0648 35.4697 29.7337 35.5898 29.4642 35.8301C29.2005 36.0645 29.0687 36.3486 29.0687 36.6826ZM32.2152 36.9727V36.375H34.3685V34.7754H35.0452V38.792H34.3685V36.9727H32.2152ZM29.5257 42.6504V40.6025H34.3773V39.7148H29.4642V39.126H35.054V41.1387H30.2025V42.0703H35.2825V42.6504H29.5257Z" fill="black"/>
</g>
<mask id="mask0_137_226" style="mask-type:alpha" maskUnits="userSpaceOnUse" x="8" y="0" width="30" height="30">
<rect x="8" width="30" height="30" fill="#D9D9D9"/>
</mask>
<g mask="url(#mask0_137_226)">
<path d="M23.0001 27.5C22.4445 27.5 21.9514 27.3663 21.5209 27.099C21.0903 26.8316 20.7917 26.4653 20.6251 26H20.3334C19.7709 26 19.2831 25.7934 18.8698 25.3802C18.4567 24.967 18.2501 24.4792 18.2501 23.9167V19.4583C16.9237 18.5903 15.8733 17.4688 15.099 16.0938C14.3247 14.7188 13.9376 13.2083 13.9376 11.5625C13.9376 9.04167 14.8178 6.90104 16.5782 5.14063C18.3386 3.38021 20.4792 2.5 23.0001 2.5C25.5209 2.5 27.6615 3.38021 29.4219 5.14063C31.1824 6.90104 32.0626 9.04167 32.0626 11.5625C32.0626 13.2222 31.6754 14.7361 30.9011 16.1042C30.1268 17.4722 29.0765 18.5903 27.7501 19.4583V23.9167C27.7501 24.4792 27.5435 24.967 27.1303 25.3802C26.7171 25.7934 26.2292 26 25.6667 26H25.3751C25.2084 26.4653 24.9098 26.8316 24.4792 27.099C24.0487 27.3663 23.5556 27.5 23.0001 27.5ZM20.3334 23.9167H25.6667V22.625H20.3334V23.9167ZM20.3334 21.375H25.6667V20.1458H20.3334V21.375ZM20.0626 18.0625H22.2084V14.0833L19.3751 11.25L20.4584 10.1667L23.0001 12.7083L25.5417 10.1667L26.6251 11.25L23.7917 14.0833V18.0625H25.9376C27.1459 17.4931 28.1216 16.6233 28.8647 15.4531C29.6077 14.283 29.9792 12.9861 29.9792 11.5625C29.9792 9.60417 29.3056 7.95139 27.9584 6.60416C26.6112 5.25693 24.9584 4.58331 23.0001 4.58331C21.0417 4.58331 19.3889 5.25693 18.0417 6.60416C16.6945 7.95139 16.0209 9.60417 16.0209 11.5625C16.0209 12.9861 16.3924 14.283 17.1355 15.4531C17.8785 16.6233 18.8542 17.4931 20.0626 18.0625Z" fill="#FF4F4D" fill-opacity="0.8"/>
</g>
</svg>
