<svg width="37" height="43" viewBox="0 0 37 43" fill="none" xmlns="http://www.w3.org/2000/svg">
<g style="mix-blend-mode:darken">
<path d="M3.03664 36.2959C3.03664 35.9912 3.17434 35.7334 3.44973 35.5225C3.73098 35.3057 4.0884 35.1504 4.52199 35.0566C4.96144 34.957 5.45656 34.9072 6.00734 34.9072C6.84523 34.9072 7.54836 35.0273 8.11672 35.2676C8.69094 35.502 8.97805 35.8447 8.97805 36.2959C8.97805 36.6064 8.83449 36.8701 8.54738 37.0869C8.26613 37.2979 7.90578 37.4531 7.46633 37.5527C7.03273 37.6465 6.54641 37.6934 6.00734 37.6934C5.14016 37.6934 4.42824 37.5732 3.8716 37.333C3.31496 37.0928 3.03664 36.7471 3.03664 36.2959ZM3.78371 36.2959C3.78371 36.5771 4.00344 36.791 4.44289 36.9375C4.8882 37.0781 5.40969 37.1484 6.00734 37.1484C6.61672 37.1484 7.1382 37.0752 7.5718 36.9287C8.01125 36.7822 8.23098 36.5713 8.23098 36.2959C8.23098 36.0264 8.01125 35.8184 7.5718 35.6719C7.1382 35.5254 6.61672 35.4521 6.00734 35.4521C5.43312 35.4521 4.9175 35.5254 4.46047 35.6719C4.0093 35.8125 3.78371 36.0205 3.78371 36.2959ZM2.06984 39.1172V38.5459H9.9009V39.1172H2.06984ZM3.05422 41.3408C3.05422 40.8955 3.31789 40.5527 3.84523 40.3125C4.37844 40.0664 5.09621 39.9434 5.99855 39.9434C6.9009 39.9434 7.6216 40.0635 8.16066 40.3037C8.69973 40.5439 8.96926 40.8896 8.96926 41.3408C8.96926 41.7861 8.6968 42.1318 8.15187 42.3779C7.60695 42.624 6.88918 42.7441 5.99855 42.7383C5.08449 42.7324 4.36379 42.6094 3.83644 42.3691C3.31496 42.1289 3.05422 41.7861 3.05422 41.3408ZM3.80129 41.3408C3.80129 41.6104 3.99465 41.8154 4.38137 41.9561C4.77394 42.0967 5.31301 42.167 5.99855 42.167C6.6548 42.167 7.19094 42.0938 7.60695 41.9473C8.02297 41.8008 8.23098 41.5986 8.23098 41.3408C8.23098 41.0654 8.02883 40.8604 7.62453 40.7256C7.22023 40.585 6.67824 40.5146 5.99855 40.5146C5.31887 40.5146 4.78273 40.585 4.39016 40.7256C3.99758 40.8662 3.80129 41.0713 3.80129 41.3408ZM11.4442 35.7773V35.1797H17.1834C17.1834 36.1172 17.0662 37.0371 16.8319 37.9395H16.1639C16.2694 37.5703 16.3514 37.1777 16.41 36.7617C16.4745 36.3398 16.5067 36.0117 16.5067 35.7773H11.4442ZM10.3983 38.4141V37.8516H18.2293V38.4141H10.3983ZM11.6112 42.6152V39.1436H12.2791V40.1631H16.4012V39.1436H17.0692V42.6152H11.6112ZM12.2791 42H16.4012V40.752H12.2791V42ZM18.9289 41.0771C19.1398 40.9424 19.342 40.793 19.5353 40.6289C19.7345 40.4648 19.9425 40.2598 20.1593 40.0137C20.382 39.7617 20.5724 39.498 20.7306 39.2227C20.8947 38.9414 21.0295 38.6162 21.1349 38.2471C21.2404 37.8779 21.2931 37.4971 21.2931 37.1045V36.208H19.3859V35.5664H23.8859V36.208H21.9963V37.0693C21.9963 37.4912 22.0695 37.9072 22.216 38.3174C22.3683 38.7275 22.5646 39.0967 22.8048 39.4248C23.0509 39.7471 23.2882 40.0254 23.5168 40.2598C23.7453 40.4941 23.9796 40.6992 24.2199 40.875L23.7541 41.3232C23.3615 41.0244 22.9572 40.626 22.5412 40.1279C22.131 39.624 21.838 39.1348 21.6623 38.6602C21.5275 39.1348 21.2345 39.6533 20.7834 40.2158C20.3322 40.7783 19.8722 41.2148 19.4035 41.5254L18.9289 41.0771ZM25.0812 42.791V34.7754H25.7668V42.791H25.0812ZM28.2593 39.1611V35.3994H33.8491V35.9971H28.9448V38.5547H33.893V39.1611H28.2593ZM27.0464 41.8506V41.2617H30.6411V38.8711H31.3266V41.2617H34.8862V41.8506H27.0464Z" fill="black"/>
</g>
<mask id="mask0_137_227" style="mask-type:luminance" maskUnits="userSpaceOnUse" x="5" y="2" width="26" height="26">
<path d="M18 3.75003C24.2133 3.75003 29.25 8.78688 29.25 15.0001C29.25 21.2134 24.2133 26.2502 18 26.2502C11.7868 26.2502 6.75 21.2134 6.75 15.0001C6.75 8.78688 11.7868 3.75003 18 3.75003Z" stroke="white" stroke-width="2" stroke-linecap="round"/>
<path d="M15.75 12.7501L24.25 8.75009L20.25 17.2502L11.75 21.2502L15.75 12.7501Z" fill="white"/>
<path d="M18 16.2501C18.6904 16.2501 19.25 15.6905 19.25 15.0001C19.25 14.3098 18.6904 13.7501 18 13.7501C17.3096 13.7501 16.75 14.3098 16.75 15.0001C16.75 15.6905 17.3096 16.2501 18 16.2501Z" fill="black"/>
</mask>
<g mask="url(#mask0_137_227)">
<path d="M33 0H3V30.0003H33V0Z" fill="#FF4F4D" fill-opacity="0.8"/>
</g>
</svg>
