<svg width="30" height="40" viewBox="0 0 30 40" fill="none" xmlns="http://www.w3.org/2000/svg">
<g style="mix-blend-mode:darken">
<path d="M2.0425 37.9453V32.4697H2.71047V37.3301H2.85988C3.49269 37.3301 4.32473 37.251 5.35598 37.0928V37.6729C4.85793 37.7607 4.28957 37.8281 3.6509 37.875C3.01809 37.9219 2.56398 37.9453 2.28859 37.9453H2.0425ZM5.76027 39.4307V32.0039H6.36672V35.0801H7.73781V31.7754H8.3882V39.791H7.73781V35.7129H6.36672V39.4307H5.76027ZM11.6418 36.0996C11.8879 35.9941 12.131 35.8682 12.3712 35.7217C12.6173 35.5752 12.8634 35.3994 13.1095 35.1943C13.3615 34.9834 13.5666 34.7402 13.7248 34.4648C13.883 34.1836 13.9679 33.8936 13.9796 33.5947V32.8301H12.0812V32.2412H16.5636V32.8301H14.7267V33.5859C14.7326 33.8438 14.8117 34.0986 14.964 34.3506C15.1222 34.5967 15.3185 34.8135 15.5529 35.001C15.7931 35.1885 16.0187 35.3467 16.2296 35.4756C16.4406 35.5986 16.6457 35.7041 16.8449 35.792L16.467 36.2578C16.0978 36.0938 15.7082 35.8594 15.298 35.5547C14.8879 35.25 14.5773 34.9336 14.3664 34.6055C14.1906 34.957 13.8712 35.3262 13.4084 35.7129C12.9513 36.0996 12.4943 36.3867 12.0373 36.5742L11.6418 36.0996ZM16.1769 34.4297V33.832H17.9435V31.7754H18.6203V36.75H17.9435V34.4297H16.1769ZM12.9777 38.2617C12.9777 37.793 13.2384 37.4297 13.7599 37.1719C14.2873 36.9141 14.9933 36.7852 15.8781 36.7852C16.7687 36.7852 17.4777 36.9141 18.005 37.1719C18.5324 37.4238 18.7961 37.7871 18.7961 38.2617C18.7961 38.7305 18.5295 39.0938 17.9962 39.3516C17.463 39.6094 16.757 39.7354 15.8781 39.7295C14.9816 39.7236 14.2726 39.5947 13.7511 39.3428C13.2355 39.0908 12.9777 38.7305 12.9777 38.2617ZM13.716 38.2617C13.716 38.5488 13.9064 38.7686 14.2873 38.9209C14.674 39.0674 15.2043 39.1406 15.8781 39.1406C16.5285 39.1406 17.0558 39.0645 17.4601 38.9121C17.8644 38.7539 18.0666 38.5371 18.0666 38.2617C18.0666 37.9629 17.8673 37.7402 17.4689 37.5938C17.0763 37.4414 16.5461 37.3652 15.8781 37.3652C15.2101 37.3652 14.6828 37.4443 14.2961 37.6025C13.9093 37.7549 13.716 37.9746 13.716 38.2617ZM21.0161 36.5391V32.25H21.6929V33.7617H25.8325V32.25H26.5093V36.5391H21.0161ZM21.6929 35.9414H25.8325V34.3506H21.6929V35.9414ZM19.8208 38.8506V38.2617H23.4067V36.1436H24.1011V38.2617H27.6606V38.8506H19.8208Z" fill="black"/>
</g>
<mask id="mask0_137_223" style="mask-type:alpha" maskUnits="userSpaceOnUse" x="0" y="0" width="30" height="30">
<rect width="30" height="30" fill="#D9D9D9"/>
</mask>
<g mask="url(#mask0_137_223)">
<path d="M7.06244 21.8125C8.29161 20.9306 9.55549 20.2483 10.8541 19.7656C12.1527 19.283 13.5347 19.0417 14.9999 19.0417C16.4652 19.0417 17.8506 19.283 19.1562 19.7656C20.4618 20.2483 21.7291 20.9306 22.9583 21.8125C23.8125 20.7778 24.4357 19.6979 24.8281 18.5729C25.2204 17.4479 25.4166 16.2569 25.4166 15C25.4166 12.0625 24.4149 9.59201 22.4114 7.58853C20.4079 5.58505 17.9374 4.58331 14.9999 4.58331C12.0624 4.58331 9.59195 5.58505 7.58847 7.58853C5.58499 9.59201 4.58325 12.0625 4.58325 15C4.58325 16.2569 4.78291 17.4479 5.18222 18.5729C5.58153 19.6979 6.20827 20.7778 7.06244 21.8125ZM14.9961 16.0417C13.7834 16.0417 12.7621 15.6254 11.9322 14.793C11.1024 13.9606 10.6874 12.938 10.6874 11.7253C10.6874 10.5126 11.1037 9.49132 11.9361 8.66147C12.7686 7.83159 13.7911 7.41666 15.0038 7.41666C16.2165 7.41666 17.2378 7.83289 18.0677 8.66534C18.8975 9.49778 19.3124 10.5203 19.3124 11.733C19.3124 12.9457 18.8962 13.967 18.0638 14.7969C17.2313 15.6267 16.2088 16.0417 14.9961 16.0417ZM15.0097 27.5C13.2879 27.5 11.6666 27.1719 10.1458 26.5156C8.62495 25.8594 7.29855 24.9653 6.1666 23.8333C5.03466 22.7014 4.14056 21.3766 3.48431 19.859C2.82806 18.3415 2.49994 16.7199 2.49994 14.9945C2.49994 13.269 2.82806 11.6493 3.48431 10.1354C4.14056 8.62153 5.03466 7.29862 6.1666 6.16666C7.29855 5.03472 8.62332 4.14063 10.1409 3.48438C11.6585 2.82812 13.28 2.5 15.0055 2.5C16.731 2.5 18.3506 2.82812 19.8645 3.48438C21.3784 4.14063 22.7013 5.03472 23.8333 6.16666C24.9652 7.29862 25.8593 8.62176 26.5156 10.1361C27.1718 11.6504 27.4999 13.2685 27.4999 14.9903C27.4999 16.712 27.1718 18.3333 26.5156 19.8542C25.8593 21.375 24.9652 22.7014 23.8333 23.8333C22.7013 24.9653 21.3782 25.8594 19.8638 26.5156C18.3495 27.1719 16.7315 27.5 15.0097 27.5ZM14.9999 25.4167C16.1319 25.4167 17.2256 25.2518 18.2812 24.9219C19.3368 24.592 20.3541 24.0486 21.3333 23.2917C20.3541 22.5903 19.3333 22.0538 18.2708 21.6823C17.2083 21.3108 16.118 21.125 14.9999 21.125C13.8819 21.125 12.7916 21.3108 11.7291 21.6823C10.6666 22.0538 9.64576 22.5903 8.6666 23.2917C9.64576 24.0486 10.6631 24.592 11.7187 24.9219C12.7743 25.2518 13.868 25.4167 14.9999 25.4167ZM14.9999 13.9583C15.6527 13.9583 16.1874 13.75 16.6041 13.3333C17.0208 12.9167 17.2291 12.3819 17.2291 11.7292C17.2291 11.0764 17.0208 10.5417 16.6041 10.125C16.1874 9.70833 15.6527 9.5 14.9999 9.5C14.3472 9.5 13.8124 9.70833 13.3958 10.125C12.9791 10.5417 12.7708 11.0764 12.7708 11.7292C12.7708 12.3819 12.9791 12.9167 13.3958 13.3333C13.8124 13.75 14.3472 13.9583 14.9999 13.9583Z" fill="#FF4F4D" fill-opacity="0.8"/>
</g>
</svg>
