<svg width="15" height="28" viewBox="0 0 15 28" fill="none" xmlns="http://www.w3.org/2000/svg">
<path d="M14.292 24.6665L12.1318 18.9977C12.0304 18.7444 11.8675 18.5203 11.6577 18.3458C11.4478 18.1713 11.1978 18.0519 10.9303 17.9984C10.9035 17.9925 10.8764 17.9887 10.849 17.9868L7.06298 17.681C7.03018 17.6714 7.00008 17.6542 6.97505 17.6309C6.95003 17.6076 6.93077 17.5788 6.9188 17.5468C6.23849 15.597 6.2302 12.8807 6.8898 10.9466C6.90086 10.9144 6.91915 10.885 6.94328 10.8609C6.96741 10.8368 6.99673 10.8185 7.02901 10.8074L10.8466 10.4818C10.8744 10.479 10.9021 10.4746 10.9294 10.4685C11.1961 10.4129 11.4448 10.2918 11.653 10.116C11.8612 9.94021 12.0223 9.71536 12.1218 9.46172L14.2879 3.81205C14.4197 3.48245 14.441 3.119 14.3487 2.77625C14.2563 2.43351 14.0553 2.12995 13.7758 1.91115C12.5506 0.97066 11.0249 0.50847 9.48371 0.610949C7.94256 0.713428 6.49145 1.37356 5.40156 2.468C-1.0867 8.95625 -1.0867 19.5131 5.40156 26.0014C6.49158 27.0956 7.94265 27.7556 9.48374 27.8581C11.0248 27.9605 12.5505 27.4985 13.7758 26.5582C14.0541 26.3405 14.2547 26.0388 14.3477 25.698C14.4407 25.3571 14.4212 24.9953 14.292 24.6665ZM6.39593 25.007C0.456232 19.0673 0.456232 9.40206 6.39593 3.46237C7.2434 2.60935 8.37246 2.09407 9.57214 2.01279C10.7718 1.93151 11.9601 2.28979 12.9148 3.0207L12.9339 3.03976C12.9667 3.07378 12.9884 3.1169 12.9962 3.16348C13.0041 3.21005 12.9977 3.25791 12.9778 3.30078L10.8225 8.95294C10.8108 8.98461 10.7924 9.01338 10.7685 9.03726C10.7446 9.06115 10.7158 9.07959 10.6841 9.09132L6.85831 9.41864C6.83044 9.42041 6.80274 9.42429 6.77545 9.43024C6.49889 9.48788 6.2419 9.61596 6.02936 9.80207C5.81683 9.98818 5.65595 10.226 5.56232 10.4926C4.79251 12.7324 4.80411 15.7536 5.59049 18.01C5.68566 18.2771 5.84843 18.515 6.06293 18.7004C6.27743 18.8859 6.53634 19.0126 6.81439 19.0682C6.84091 19.0731 6.86825 19.0773 6.8956 19.0798L10.6808 19.3847C10.7119 19.394 10.7405 19.41 10.7649 19.4314C10.7892 19.4529 10.8086 19.4793 10.8217 19.509L12.9828 25.1786C13.0012 25.2242 13.0047 25.2744 12.993 25.3221C12.9812 25.3698 12.9548 25.4127 12.9173 25.4445C11.9627 26.1764 10.7743 26.5357 9.57415 26.4552C8.37398 26.3746 7.2442 25.8599 6.39593 25.007Z" fill="#6985FF"/>
</svg>
